<?xml version="1.0" encoding="utf-8"?><svg version="1.1" id="Layer_1" xmlns="http://www.w3.org/2000/svg" xmlns:xlink="http://www.w3.org/1999/xlink" x="0px" y="0px" viewBox="0 0 97.96 122.88" style="enable-background:new 0 0 97.96 122.88" xml:space="preserve"><g><path d="M66.77,0.69C66.31,0.28,65.66,0,65.02,0c-0.14,0-0.28,0-0.41,0.05H5.88c-1.57,0-3.04,0.64-4.1,1.7 c-1.06,1.06-1.71,2.49-1.71,4.1v54.98L0,60.88v6.81l0.07-0.04v0.64c4.36-2.85,8.22-5.6,12.63-8.26l15.44,18.38l17.46-20.78 l15.4,18.33l23.89-16.42l5.42,3.73v0l7.54,5.18V33.86c0.05-0.23,0.09-0.41,0.09-0.64c0-0.78-0.37-1.47-0.87-1.98l-30-30.36 C67,0.79,66.95,0.74,66.86,0.7L66.77,0.69L66.77,0.69L66.77,0.69z M7.61,56.71V8.24c0-0.18,0.05-0.32,0.18-0.42 c0.09-0.09,0.23-0.18,0.42-0.18h52.53l0,0l0,0v20.92c0,2.17,0.88,4.74,2.3,6.17c1.43,1.43,4.45,2.6,6.62,2.6h20.66v19.83 l-5.42-3.73l-22.55,15.5L45.62,49.01L28.16,69.8l-14-16.67L7.61,56.71L7.61,56.71z M90.33,82.9l-5.42-3.73L56.75,98.52L45.63,85.28 l-17.49,20.81L8.05,82.17l-0.46,0.22c-0.06,10.89-0.15,32.35,0.21,32.71c0.1,0.13,0.28,0.18,0.42,0.18 c7.72,0,81.25,0.35,81.79-0.18c0.13-0.09,0.33-0.27,0.33-0.41V82.9L90.33,82.9z M0.07,85.89L0,85.93v-5.08l9.5-5.57l18.65,22.2 l17.48-20.8l12.45,14.82l26.83-18.43l5.42,3.73v0l7.54,5.18v35.11c0,1.61-0.64,3.04-1.7,4.1c-1.06,1.05-2.49,1.7-4.1,1.7 c-29.44,0-56.59,0-86.19,0c-1.61,0-3.04-0.64-4.1-1.7c-1.06-1.06-1.71-2.49-1.71-4.1V85.89L0.07,85.89z M67.6,27.97V8.94 l21.43,21.7H70.27c-0.74,0-1.38-0.32-1.89-0.78C67.92,29.4,67.6,28.7,67.6,27.97L67.6,27.97L67.6,27.97z"/></g></svg>