<?xml version="1.0" encoding="iso-8859-1"?>
<!-- Generator: Adobe Illustrator 19.0.0, SVG Export Plug-In . SVG Version: 6.00 Build 0)  -->
<svg version="1.1" id="Layer_1" xmlns="http://www.w3.org/2000/svg" xmlns:xlink="http://www.w3.org/1999/xlink" x="0px" y="0px"
	 viewBox="0 0 485 485" style="enable-background:new 0 0 485 485;" xml:space="preserve" width="1rem" height="1rem">
<g>
	<path fill="#F00000" d="M95.429,310.94l-52.293,69.986c-8.426,11.312-12.88,24.764-12.88,38.901c0,35.937,29.236,65.173,65.173,65.173
		s65.173-29.237,65.173-65.173c0-14.135-4.453-27.587-12.893-38.919L95.429,310.94z M95.429,455
		c-19.395,0-35.173-15.779-35.173-35.173c0-7.631,2.399-14.886,6.926-20.962l28.247-37.805l28.233,37.786
		c4.54,6.096,6.939,13.351,6.939,20.981C130.602,439.221,114.823,455,95.429,455z"/>
	<path d="M454.744,120V90h-65V70h-57.82V30h62.82V0H239.104v30h62.82v40h-57.82v20h-100.05C83.771,90,34.727,139.044,34.727,199.327
		v77.776h121.404v-65.7h87.973v20h145.641v-20h65v-30h-65V120H454.744z M144.054,181.404c-9.883,0-17.923,8.041-17.923,17.923
		v47.776H64.727v-47.776c0-43.741,35.586-79.327,79.327-79.327h100.05v61.404H144.054z M359.744,201.404h-85.641V100h85.641V201.404
		z"/>
</g>
</svg>
